<?xml version="1.0" encoding="utf-8"?>
<!-- Generator: Adobe Illustrator 23.1.1, SVG Export Plug-In . SVG Version: 6.00 Build 0)  -->
<svg version="1.1" xmlns="http://www.w3.org/2000/svg" xmlns:xlink="http://www.w3.org/1999/xlink" x="0px" y="0px"
	 viewBox="0 0 201.7 190.96" style="enable-background:new 0 0 201.7 190.96;" xml:space="preserve">
<style type="text/css">
	.st0{fill:#79C6DB;}
	.st1{fill:#FFFFFF;stroke:#1A67A0;stroke-width:2;stroke-miterlimit:10;}
	.st2{clip-path:url(#SVGID_2_);fill:#FFFFFF;}
	.st3{clip-path:url(#SVGID_4_);fill:#FFFFFF;}
	.st4{fill:#1A67A0;}
	.st5{fill:#054872;}
	.st6{clip-path:url(#SVGID_6_);fill:#FFFFFF;}
</style>
<g id="Layer_1">
	<circle class="st0" cx="368.94" cy="-277.25" r="92"/>
	<circle class="st0" cx="590.64" cy="-277.25" r="92"/>
</g>
<g id="Layer_3">
	<path id="SVGID_x5F_2_x5F_" style="fill:none;" d="M432.23-274.74c0,34.53-28,62.53-62.53,62.53s-62.53-28-62.53-62.53
		s28-62.53,62.53-62.53S432.23-309.28,432.23-274.74z"/>
	<text>	<textPath  xlink:href="#SVGID_x5F_2_x5F_" startOffset="94.4707%">
<tspan  style="fill:#FFFFFF; font-family:'Avenir-Black'; font-size:12px;">Knudo</tspan>	</textPath>
</text>
	<path id="SVGID_x5F_4_x5F_" style="fill:none;" d="M653.94-274.74c0,34.53-28,62.53-62.53,62.53s-62.53-28-62.53-62.53
		s28-62.53,62.53-62.53S653.94-309.28,653.94-274.74z"/>
	<text>	<textPath  xlink:href="#SVGID_x5F_4_x5F_" startOffset="94.4707%">
<tspan  style="fill:#FFFFFF; font-family:'Avenir-Black'; font-size:12px;">Knudo</tspan>	</textPath>
</text>
</g>
<g id="Layer_2">
	<path class="st1" d="M320.89-306.96c0,0-3.16-6.47-10.79-6.84c-7.01-0.34-7.74,4.57-11.57,4.5c-0.23,0-0.31,0.3-0.11,0.41
		c4.53,2.61,9.03,5.33,15.56,2.67C318.62-308.11,320.89-306.96,320.89-306.96z"/>
	<path class="st1" d="M326.75-301.23c0,0-3.07-7.5-10.29-5.02c-10.08,3.46-11.2,1.56-16.5-0.95c1.77,8.47,11.02,10,16.6,7.45
		S326.75-301.23,326.75-301.23z"/>
	<path class="st1" d="M329.44-299.74c0,0-6.63-1.87-12.98,1.19c-0.47,0.22-1.18,0.51-1.69,0.62c-5.37,1.21-9.41-1.31-9.41-1.31
		s6.5,11.21,17.38,7.26C323.99-296.73,329.44-299.74,329.44-299.74z"/>
	<path class="st1" d="M322.25-291.01c0,0-3.86,1.08-6.49,0.66c0.95,2.76,3.63,4.26,5.05,4.88c0.38,0.17,0.79-0.16,0.73-0.57
		C321.36-287.22,321.24-289.35,322.25-291.01z"/>
	<path class="st1" d="M371.26-310.82c0,0-3.98-0.07-5.86,1.74c-0.56-3.14-5.07-5.87-5.07-5.87S368.75-316.12,371.26-310.82z"/>
	<path class="st1" d="M370.91-309.98c0,0-9.35,1.74-9.98,9.77c-0.63,8.02,4.67,7.74,0.77,17.44c1.95-0.91,9.12-5.41,7.68-11.18
		C367.66-300.85,367.77-306.67,370.91-309.98z"/>
	<path class="st1" d="M382.15-314.4c0,0-11.64,1.24-12.59,9.23c-1.13,9.42,3.06,11.74-0.62,17.21c1.95-0.91,9.23-8.24,8.57-15.22
		C376.87-309.87,379.87-312.64,382.15-314.4z"/>
	<path class="st1" d="M360.73-302.94c0,0-1.08,4.29-0.35,7.19c0.44,1.72,2.36,5.38,1.85,8.41c-0.94,5.62-5.48,8.86-14.27,7.95
		c2.42-1.15,5.95-4.22,6.52-7.76c0.44-2.72-0.31-6.09,0.45-8.67C355.7-298.4,360.73-302.94,360.73-302.94z"/>
	<path class="st1" d="M354.21-296.57c0.25-0.07,0.49,0.17,0.41,0.42c-0.32,1.03-0.88,3.35-0.57,6.56c0.41,4.27-2.82,8.16-6.84,9.88
		c-2.47,1.06-7.43,0.17-8.92-0.14c-0.22-0.04-0.32-0.28-0.23-0.48c0.13-0.27,0.29-0.64,0.34-0.96c0.02-0.15,0.14-0.25,0.29-0.27
		c1.04-0.16,3.94-1.94,5.03-3.82c1.21-2.09,2.47-4.21,3.58-5.71C348.38-292.53,349.67-295.29,354.21-296.57z"/>
	<path class="st1" d="M364.52-308.59c0,0-2.7-10.79-16.56-5.63c3.63,0.44,9.35,3.62,11.4,11.28c1.02-1.19,1.53-1.14,1.53-1.14
		S361.96-307.08,364.52-308.59z"/>
	<path class="st1" d="M358.42-302.4c0,0-2.38-10.14-12.08-11.35c-2.85-0.28-7.88,2.14-10.44,6.19c4.47-1.84,15.77,2.79,18.92,9.02
		C355.7-300.29,358.42-302.4,358.42-302.4z"/>
	<path class="st1" d="M354.42-298.09c0,0-3.83-6.61-13.36-8.86c-3.22-0.76-6.67,0.3-8.75,2.88c-1.6,1.99-2.26,4.11-2.26,4.11
		s9.4-2.31,15.85,1.87c1.54,1,3.52,1.64,5.22,0.93C352.99-297.95,354.42-298.09,354.42-298.09z"/>
	<path class="st1" d="M347.11-296c0.23-0.03,0.29-0.35,0.09-0.47c-1.27-0.76-3.92-2.2-6.55-2.74c-5.06-1.03-14.47-1.88-17.86,10.69
		c-0.07,0.25,0.24,0.43,0.42,0.26c2.82-2.56,4.54-3.18,6.66-3.4c1.85-0.19,7.4,0.88,11.54-0.8
		C343.26-293.22,344.9-295.72,347.11-296z"/>
	<path class="st1" d="M342.24-292.26c0,0-2.84,1.58-4.88,1.63s-5.35-0.37-8,0c-2.65,0.37-5.86,2.65-6.79,4.79
		c-0.93,2.14-1.91,4.93-0.84,8.98c1.12-2.37,4.56-4.79,6.6-5.44c2.05-0.65,6.7-1.31,9.26-3.12
		C340.15-287.23,342.24-292.26,342.24-292.26z"/>
	<path class="st1" d="M338.42-285.47c0,0-1.72,1.63-4.09,2.28c-2.37,0.65-6.47,1.45-8.33,2.88c-0.96,0.74-5.35,4.23-5.07,9.02
		c-0.01,3.16,2.79,6.49,2.79,6.49s0.05-3,2.28-5.14c2.23-2.14,5.04-2.46,7.91-5.81C336.89-279.24,337.68-281.05,338.42-285.47z"/>
	<path class="st1" d="M337.12-278.96c0,0-1.44,2.98-4.14,5.02s-4.98,2.88-6.84,5.16c-1.86,2.28-4.33,8.19,1.95,15.21
		c-0.19-9.3,4.56-8.6,7.16-12.98C336.23-268.17,339.03-273.15,337.12-278.96z"/>
	<path class="st1" d="M337.52-270.17c0,0-0.63,2.95-2.02,4.88c-1.26,1.75-4.73,4.07-5.49,5.49c-1.98,3.69-2.09,10.6,6.65,16.42
		c-1.67-6.88,0.27-9.79,2.56-15.4C341.4-264.12,337.52-270.17,337.52-270.17z"/>
	<path class="st1" d="M340.33-263.71c0,0,0.88,3.35-2.19,9.58c-2.98,6.05-1.77,16.28,10.37,16.28c0,0-4.14-4-4.51-8.42
		c-0.27-3.26,1.07-5.63,1.02-8.42C344.98-257.47,344.27-260.56,340.33-263.71z"/>
	<path class="st1" d="M345.45-257.05c0,0,0.61,3.35-0.33,6.28c-2.09,6.56,3.4,17.44,15.3,14.19c-3.53-1.53-7.51-4.63-8.43-8.55
		c-0.63-2.7-0.98-5.46-2.37-7.82C348.54-254.78,345.45-257.05,345.45-257.05z"/>
	<path class="st1" d="M349.84-253.39c0,0,1.6,2.54,2.22,6.41c0.15,0.94,0.96,5.14,5.97,8.45c0.73,0.48,4.77,4.17,13.33-1.37
		c-5.4-0.88-6.98-2.98-8.14-4.33c-1.16-1.35-3.24-4.97-6-7.07C354.1-253.66,349.84-253.39,349.84-253.39z"/>
	<path class="st1" d="M319.67-269.9c0.15-0.09,0.32,0.06,0.26,0.22c-0.56,1.47-2.15,5.92-1.69,8.19c0.74,3.69,1.48,12.15-5.23,15.93
		c-0.29,0.16-0.63-0.1-0.53-0.42c1.47-4.68-1.74-7.57-1.67-13.11C310.87-264.17,317.81-268.76,319.67-269.9z"/>
	<path class="st1" d="M313.01-265.33c0,0-2.83,2.48-3,4.81c-0.15,2.05-0.33,4.76,1.18,8.37c1.06,2.53,0.4,4.95-0.09,6.17
		c-0.14,0.34-0.61,0.37-0.78,0.03c-0.92-1.78-3.38-5.97-6.44-6.68c-0.38-0.09-0.62-0.44-0.6-0.83
		C303.39-256.22,305.65-263.13,313.01-265.33z"/>
	<path class="st1" d="M320.51-268.96c0,0-1.64,3.66-1.43,6.07s1.26,9.31-0.56,11.97c1.78-1.36,3.73-0.17,6.91-4.99
		c-1.36-2.37-2.55-5.41-2.09-8.27C322.22-265.33,320.58-267.81,320.51-268.96z"/>
	<path class="st1" d="M319.39-270.53"/>
	<path class="st1" d="M338.78-269.48c0,0-0.65-1.06-0.9-1.27c0.33-0.7,0.64-3.72,0.4-4.38c0.8-0.21,4.73-0.19,6.4,0.9
		C343.61-274.08,339.87-272.27,338.78-269.48z"/>
	<path class="st1" d="M343.19-261.73c0,0-1.67-2.07-2.88-2.72c0-0.65-0.43-2.79-1.35-4.63c0.7-1.09,3.69-4.77,7.86-4.86
		c4.03-0.09,10.33,3.44,10.33,3.44S347.42-270.57,343.19-261.73z"/>
	<path class="st1" d="M345.31-257.68c0,0-0.45-2.04-1.6-3.42c0.23-0.47,1.72-3.67,4.21-5.47c2.49-1.79,11.58-7.37,18.49,2.7
		c-3.23-0.35-7.27,0.09-9.67,1.44c-1.53,0.86-3.02,2.44-5.91,3.86C348.53-257.44,345.31-257.68,345.31-257.68z"/>
	<path class="st1" d="M370.82-261.17c0.1-0.08,0.1-0.24-0.02-0.31c-0.86-0.54-4.17-2.33-9.17-1.62c-5.86,0.84-6.64,3.08-9.08,4.33
		c-2.14,1.09-4.33,1.53-5.8,1.59c-0.2,0.01-0.26,0.25-0.1,0.36c1.28,0.85,2.62,2.42,2.9,2.76c0.04,0.04,0.08,0.06,0.13,0.06
		c0.5,0.01,3.11,0.06,4.14,0.4c0.08,0.03,0.15,0,0.2-0.06c0.52-0.68,1.76-1.5,3.11-1.68c1.58-0.21,4.3,0.7,8.16-0.77
		C367.26-256.86,369.11-259.79,370.82-261.17z"/>
	<path class="st1" d="M380.05-253.82c0,0-3.35-3.67-8.13-3.23s-6.9,2.07-8.74,2.48c-2.48,0.56-6.74-1.06-8.31,1.17
		c1.22,0.52,3.93,1.67,5.23,3.94c1.6,2.37,7.24,3,11.26-0.03S378.69-253.93,380.05-253.82z"/>
	<path class="st1" d="M387.45-252.67c0,0-5.27-2.14-9.91,0.24c-4.64,2.39-6.63,5.07-10.08,5.49c-3.45,0.42-5.06-0.05-5.06-0.05
		s2.17,5.79,8.95,5.34S384.2-252.01,387.45-252.67z"/>
	<path class="st1" d="M400.49-256.86c0,0-6.55,3.43-8.19,8.73c-1.4,4.51-3.16,6.4-4.79,8.2c-2.34,2.58-4.99,3.16-4.99,3.16
		s9.79,4.17,13.92-1.22C401.23-244.23,398.75-254.04,400.49-256.86z"/>
	<path class="st1" d="M393.62-251.98c0.18-0.18,0.05-0.5-0.21-0.51c-1.7-0.07-5.72,0.09-8.72,2.74c-3.91,3.46-5.75,6.04-8.89,7.54
		c-1.94,0.93-3.18,1.27-3.85,1.39c-0.25,0.05-0.33,0.35-0.15,0.52c1.33,1.25,5.5,4.57,10.8,2.83
		C390.18-239.96,391.14-249.48,393.62-251.98z"/>
	<path class="st1" d="M403.67-258.25c0,0-2,0.57-2.57,1.4c-1.28,1.87-0.56,8.9-1.07,11.85c-0.53,3.12-1.58,6.28-3.6,7.72
		c1.88,0,5.74-0.26,8.12-3.56C407.1-244.41,409.25-251.34,403.67-258.25z"/>
	<path class="st1" d="M415.73-254.77c0,0-3.35-0.98-4.14-2.47c-1.72,0.98-6.05-0.27-6.56-0.65c1.63,1.77,4.29,6.93,2.15,13.95
		C408.94-244.73,415.03-246.36,415.73-254.77z"/>
	<path class="st1" d="M369.26-257.66c0,0,3.26-6.03,8.84-6.28c3.41-0.15,8.7,1.44,11.67,4.23c1.88,1.76,6.84,3.41,8.79,2.85
		c-2.47,1.63-4.98,5.48-13.49,2.64C379.3-256.14,376.47-259.19,369.26-257.66z"/>
	<path class="st1" d="M377.26-264.54c0,0,2.84-4.94,8.42-5.18c3.41-0.15,8.11,2.19,11.12,4.95c2.23,2.05,4.56,5.72,6.84,5.77
		c-2.47,1.63-7.66,2.15-11.77-0.6C386.81-263.01,383.17-265.43,377.26-264.54z"/>
	<path class="st1" d="M386.98-270.54c0,0,7.3-4.78,12.47-2.65c3.16,1.3,6.59,5.84,8.15,9.61c1.16,2.8,1.64,4.85,3.68,5.85
		c-2.92,0.44-8.43-1.07-11.37-5.04C396.89-266.87,392.42-270.08,386.98-270.54z"/>
	<path class="st1" d="M422.89-269.79c-0.12-0.21,0.07-0.47,0.3-0.39c1.91,0.61,7.42,2.7,8.95,7.04c1.14,3.22,1.53,6.26-0.23,9.94
		c-1.15,2.4-0.94,4.9-0.45,6.96c0.06,0.25-0.24,0.43-0.43,0.26c-2.51-2.26-6.96-7.24-6.05-11.67
		C425.96-262.43,425.45-265.44,422.89-269.79z"/>
	<path class="st1" d="M409.16-274.39c0,0,9.36,0.64,12.75,4.65c2.21,2.61,3.01,7.49,2.19,11.48c-0.61,2.97,0.64,6.06,1.77,8.03
		c-6.42-3.49-7.77-5.46-8.56-12.84C416.75-268.22,413.21-272.2,409.16-274.39z"/>
	<path class="st1" d="M399.33-274.34c-0.31-0.09-0.27-0.55,0.06-0.58c2.15-0.19,5.85-0.21,9.22,1.18c3.16,1.3,6.37,5.48,7.4,9.43
		c0.68,2.62,1,7.16,2.53,8.8c0.17,0.19,0.03,0.5-0.23,0.5c-3.04-0.1-7.83-2.82-9.83-8.94C407.07-268.24,403.84-273,399.33-274.34z"
		/>
	<path class="st1" d="M350.96-295.99c0,0-3.33,0.31-4.61,1.11c-1.28,0.8-3.52,2.62-3.52,2.62s-1.78,5.42-3.7,6.79
		c0.31,0.91-0.71,3.33-0.71,3.33s2.86-1.05,4.41-3.03C344.58-287.44,346.35-293.2,350.96-295.99z"/>
	<path class="st1" d="M394.7-314.08c0,0-3.21-2.42-6.79-1.95s-8.05,3.21-9.07,7.49c-1.02,4.28,0.65,8.05-1.77,11.79
		c2.19-1,4.88-1.75,6.6-4.77S385.49-310.82,394.7-314.08z"/>
	<path class="st1" d="M406.08-308.87c0.27,0.03,0.43-0.29,0.23-0.48c-1.05-1-3.41-3.01-6.12-3.79c-4.37-1.26-8.6,0.57-11.4,3.87
		c-2.79,3.3-3.67,9.57-6.65,10.64c3.07,0.37,6.6-0.09,8.65-2.05C397.57-307.14,399.11-309.62,406.08-308.87z"/>
	<path class="st1" d="M414.42-301.18c0,0-4.65-7.17-10.98-6.8c-6.33,0.37-10.19,8.28-14.37,9.16c2.28,1.4,4.88,2.56,8.74,1.53
		C401.68-298.31,407.96-303.96,414.42-301.18z"/>
	<path class="st1" d="M443.33-306.27c0.08-0.21-0.17-0.39-0.34-0.25c-0.98,0.79-3.06,2.12-5.86,2.02c-3.98-0.14-7.26-1.8-11.51-1.74
		c-3.43,0.05-6.77,3.23-7.94,4.47c-0.14,0.15-0.01,0.4,0.19,0.37c1.47-0.23,5.19-0.63,7.6,0.88
		C428.24-298.8,438.82-294.04,443.33-306.27z"/>
	<path class="st1" d="M438.8-298.52c0,0-7.6,2.22-11.16,0.11c-5.29-3.13-10.49-3.11-18.23,0.63c3.53,0.67,5.71,1.75,8.81,3.84
		C420.65-292.3,433.98-286.87,438.8-298.52z"/>
	<path class="st1" d="M433.49-291.64c0,0-7.53,3.13-14.02-0.84c-7.51-4.58-9.29-4.94-17.72-3.23c3.52,1.18,5.53,3.42,7.22,5.64
		C412.39-285.57,425.94-281.54,433.49-291.64z"/>
	<path class="st1" d="M418.91-284.83c0,0-3.77-0.03-6.91-1.6c-3.1-1.55-5.48-5.58-7.33-6.8c-1.85-1.22-4.4-3.1-9.98-2.06
		c2.16,1.6,3.8,3.9,4.26,5.11c0.45,1.21,4.49,9.23,10.44,8.74C415.35-281.94,418.91-284.83,418.91-284.83z"/>
	<path class="st1" d="M407.12-280.72c0,0-2.39,0.12-5.37-3.49c-3.35-4.05-5.48-11.61-12.42-12.69c0.8,2.79,0.38,3.55,0.24,4.84
		C389.44-290.76,388.76-275.45,407.12-280.72z"/>
	<path class="st1" d="M395.92-279.62c0,0-3.41-1.18-5.06-3.68c-1.79-2.71-2.17-5.82-1.79-9.62c0.38-3.8-1.01-5.41-1.01-5.41
		s-4.11,0.52-5.29,3.17c-1.19,2.65-2.97,10.22,3.49,14.27C392.71-276.84,395.92-279.62,395.92-279.62z"/>
	<path class="st1" d="M384.65-281.2c0,0-7.58-5.42-1.39-15.95c-0.94,0.25-2.51-0.21-2.51-0.21s-2.76,1.74-4.01,1.53
		c-0.38,1.74-3.28,5.06-3.28,5.06S375.79-281.34,384.65-281.2z"/>
	<path class="st1" d="M411.28-274.94c0,0-1.96-0.33-3.03,0.07c-0.72-0.47-2.49-0.77-3.03-0.72c-0.16-0.65-0.12-2.81,1.41-4.03
		C407.99-276.98,411.28-274.94,411.28-274.94z"/>
	<path class="st1" d="M407.99-280.54c0,0-1.01,0.45-0.87,0.73c0.14,0.28,2.63,3.7,4.94,4.94c3.12,0.35,6.99,1.24,9.99,3.99
		c0-1.19,0.21-7.74-6.87-11.09C414.17-281.43,411.06-280.61,407.99-280.54z"/>
	<path class="st1" d="M422.28-276.26c0,0-1.21-3.94-5.3-5.94c-0.2-0.1-0.2-0.37,0-0.45c1.04-0.45,2.78-1.61,2.85-1.96
		c0.47,0.21,2.88,0.26,3.44,0C423.54-283.61,424.19-280.59,422.28-276.26z"/>
	<path class="st1" d="M414.68-300.54c0,0-3.69-0.95-6.91-0.13c-3.44,0.87-6.19,3.5-9.77,4.02c1.86,0,2.74,0.15,3.16,0.34
		c0.58-0.34,5.08-1.58,7.05-1.44C409.4-298.83,411.82-299.98,414.68-300.54z"/>
	<path class="st1" d="M542.6-307.34c0,0-3.16-7.8-10.79-8.25c-7.01-0.41-7.74,5.52-11.57,5.43c-0.23-0.01-0.31,0.36-0.11,0.5
		c4.53,3.15,9.03,6.44,15.56,3.22C540.33-308.73,542.6-307.34,542.6-307.34z"/>
	<path class="st1" d="M548.46-302.01c0,0-2.99-6.52-10.02-4.36c-9.81,3-10.89,1.36-16.05-0.82c1.72,7.36,10.73,8.69,16.16,6.48
		C543.98-302.93,548.46-302.01,548.46-302.01z"/>
	<path class="st1" d="M551.76-301.36c0,0-6.8-2.22-13.31,1.41c-0.48,0.27-1.21,0.6-1.73,0.74c-5.51,1.43-9.66-1.55-9.66-1.55
		s6.67,13.31,17.83,8.61C546.18-297.77,551.76-301.36,551.76-301.36z"/>
	<path class="st1" d="M543.96-291.01c0,0-3.86,1.08-6.49,0.66c0.95,2.76,3.63,4.26,5.05,4.88c0.38,0.17,0.79-0.16,0.73-0.57
		C543.07-287.22,542.94-289.35,543.96-291.01z"/>
	<path class="st1" d="M592.97-310.82c0,0-3.98-0.07-5.86,1.74c-0.56-3.14-5.07-5.87-5.07-5.87S590.46-316.12,592.97-310.82z"/>
	<path class="st1" d="M592.62-309.98c0,0-9.35,1.74-9.98,9.77c-0.63,8.02,4.67,7.74,0.77,17.44c1.95-0.91,9.12-5.41,7.68-11.18
		C589.37-300.85,589.48-306.67,592.62-309.98z"/>
	<path class="st1" d="M603.85-314.4c0,0-11.64,1.24-12.59,9.23c-1.13,9.42,3.06,11.74-0.62,17.21c1.95-0.91,9.23-8.24,8.57-15.22
		C598.58-309.87,601.57-312.64,603.85-314.4z"/>
	<path class="st1" d="M582.43-302.94c0,0-1.08,4.29-0.35,7.19c0.44,1.72,2.36,5.38,1.85,8.41c-0.94,5.62-5.48,8.86-14.27,7.95
		c2.42-1.15,5.95-4.22,6.52-7.76c0.44-2.72-0.31-6.09,0.45-8.67S582.43-302.94,582.43-302.94z"/>
	<path class="st1" d="M575.92-296.57c0.25-0.07,0.49,0.17,0.41,0.42c-0.32,1.03-0.88,3.35-0.57,6.56c0.41,4.27-2.82,8.16-6.84,9.88
		c-2.47,1.06-7.43,0.17-8.92-0.14c-0.22-0.04-0.32-0.28-0.23-0.48c0.13-0.27,0.29-0.64,0.34-0.96c0.02-0.15,0.14-0.25,0.29-0.27
		c1.04-0.16,3.94-1.94,5.03-3.82c1.21-2.09,2.47-4.21,3.58-5.71C570.08-292.53,571.38-295.29,575.92-296.57z"/>
	<path class="st1" d="M586.22-308.59c0,0-2.7-10.79-16.56-5.63c3.63,0.44,9.35,3.62,11.4,11.28c1.02-1.19,1.53-1.14,1.53-1.14
		S583.67-307.08,586.22-308.59z"/>
	<path class="st1" d="M580.13-302.4c0,0-2.38-10.14-12.08-11.35c-2.85-0.28-7.88,2.14-10.44,6.19c4.47-1.84,15.77,2.79,18.92,9.02
		C577.41-300.29,580.13-302.4,580.13-302.4z"/>
	<path class="st1" d="M576.13-298.09c0,0-3.83-6.61-13.36-8.86c-3.22-0.76-6.67,0.3-8.75,2.88c-1.6,1.99-2.26,4.11-2.26,4.11
		s9.4-2.31,15.85,1.87c1.54,1,3.52,1.64,5.22,0.93C574.7-297.95,576.13-298.09,576.13-298.09z"/>
	<path class="st1" d="M568.81-296c0.23-0.03,0.29-0.35,0.09-0.47c-1.27-0.76-3.92-2.2-6.55-2.74c-5.06-1.03-14.47-1.88-17.86,10.69
		c-0.07,0.25,0.24,0.43,0.42,0.26c2.82-2.56,4.54-3.18,6.66-3.4c1.85-0.19,7.4,0.88,11.54-0.8
		C564.97-293.22,566.61-295.72,568.81-296z"/>
	<path class="st1" d="M563.95-292.26c0,0-2.84,1.58-4.88,1.63s-5.35-0.37-8,0c-2.65,0.37-5.86,2.65-6.79,4.79
		c-0.93,2.14-1.91,4.93-0.84,8.98c1.12-2.37,4.56-4.79,6.6-5.44c2.05-0.65,6.7-1.31,9.26-3.12
		C561.85-287.23,563.95-292.26,563.95-292.26z"/>
	<path class="st1" d="M560.13-285.47c0,0-1.72,1.63-4.09,2.28c-2.37,0.65-6.47,1.45-8.33,2.88c-0.96,0.74-5.35,4.23-5.07,9.02
		c-0.01,3.16,2.79,6.49,2.79,6.49s0.05-3,2.28-5.14s5.04-2.46,7.91-5.81C558.6-279.24,559.39-281.05,560.13-285.47z"/>
	<path class="st1" d="M558.83-278.96c0,0-1.44,2.98-4.14,5.02c-2.7,2.05-4.98,2.88-6.84,5.16c-1.86,2.28-4.33,8.19,1.95,15.21
		c-0.19-9.3,4.56-8.6,7.16-12.98C557.94-268.17,560.74-273.15,558.83-278.96z"/>
	<path class="st1" d="M559.22-270.17c0,0-0.63,2.95-2.02,4.88c-1.26,1.75-4.73,4.07-5.49,5.49c-1.98,3.69-2.09,10.6,6.65,16.42
		c-1.67-6.88,0.27-9.79,2.56-15.4C563.11-264.12,559.22-270.17,559.22-270.17z"/>
	<path class="st1" d="M562.04-263.71c0,0,0.88,3.35-2.19,9.58c-2.98,6.05-1.77,16.28,10.37,16.28c0,0-4.14-4-4.51-8.42
		c-0.27-3.26,1.07-5.63,1.02-8.42C566.69-257.47,565.98-260.56,562.04-263.71z"/>
	<path class="st1" d="M567.15-257.05c0,0,0.61,3.35-0.33,6.28c-2.09,6.56,3.4,17.44,15.3,14.19c-3.53-1.53-7.51-4.63-8.43-8.55
		c-0.63-2.7-0.98-5.46-2.37-7.82C570.25-254.78,567.15-257.05,567.15-257.05z"/>
	<path class="st1" d="M571.55-253.39c0,0,1.6,2.54,2.22,6.41c0.15,0.94,0.96,5.14,5.97,8.45c0.73,0.48,4.77,4.17,13.33-1.37
		c-5.4-0.88-6.98-2.98-8.14-4.33s-3.24-4.97-6-7.07C575.81-253.66,571.55-253.39,571.55-253.39z"/>
	<path class="st1" d="M541.38-269.9c0.15-0.09,0.32,0.06,0.26,0.22c-0.56,1.47-2.15,5.92-1.69,8.19c0.74,3.69,1.48,12.15-5.23,15.93
		c-0.29,0.16-0.63-0.1-0.53-0.42c1.47-4.68-1.74-7.57-1.67-13.11C532.58-264.17,539.52-268.76,541.38-269.9z"/>
	<path class="st1" d="M534.71-265.33c0,0-3.79,2.48-4.02,4.81c-0.2,2.05-0.45,4.76,1.59,8.37c1.42,2.53,0.54,4.95-0.12,6.17
		c-0.19,0.34-0.82,0.37-1.05,0.03c-1.23-1.78-4.52-5.97-8.62-6.68c-0.5-0.09-0.83-0.44-0.81-0.83
		C521.83-256.22,524.87-263.13,534.71-265.33z"/>
	<path class="st1" d="M542.21-268.96c0,0-1.64,3.66-1.43,6.07s1.26,9.31-0.56,11.97c1.78-1.36,3.73-0.17,6.91-4.99
		c-1.36-2.37-2.55-5.41-2.09-8.27C543.92-265.33,542.28-267.81,542.21-268.96z"/>
	<path class="st1" d="M541.1-270.53"/>
	<path class="st1" d="M560.49-269.48c0,0-0.65-1.06-0.9-1.27c0.33-0.7,0.64-3.72,0.4-4.38c0.8-0.21,4.73-0.19,6.4,0.9
		C565.32-274.08,561.57-272.27,560.49-269.48z"/>
	<path class="st1" d="M564.9-261.73c0,0-1.67-2.07-2.88-2.72c0-0.65-0.43-2.79-1.35-4.63c0.7-1.09,3.69-4.77,7.86-4.86
		c4.03-0.09,10.33,3.44,10.33,3.44S569.13-270.57,564.9-261.73z"/>
	<path class="st1" d="M567.02-257.68c0,0-0.45-2.04-1.6-3.42c0.23-0.47,1.72-3.67,4.21-5.47c2.49-1.79,11.58-7.37,18.49,2.7
		c-3.23-0.35-7.27,0.09-9.67,1.44c-1.53,0.86-3.02,2.44-5.91,3.86C570.24-257.44,567.02-257.68,567.02-257.68z"/>
	<path class="st1" d="M592.53-261.17c0.1-0.08,0.1-0.24-0.02-0.31c-0.86-0.54-4.17-2.33-9.17-1.62c-5.86,0.84-6.64,3.08-9.08,4.33
		c-2.14,1.09-4.33,1.53-5.8,1.59c-0.2,0.01-0.26,0.25-0.1,0.36c1.28,0.85,2.62,2.42,2.9,2.76c0.04,0.04,0.08,0.06,0.13,0.06
		c0.5,0.01,3.11,0.06,4.14,0.4c0.08,0.03,0.15,0,0.2-0.06c0.52-0.68,1.76-1.5,3.11-1.68c1.58-0.21,4.3,0.7,8.16-0.77
		C588.96-256.86,590.82-259.79,592.53-261.17z"/>
	<path class="st1" d="M601.76-253.82c0,0-3.35-3.67-8.13-3.23s-6.9,2.07-8.74,2.48c-2.48,0.56-6.74-1.06-8.31,1.17
		c1.22,0.52,3.93,1.67,5.23,3.94c1.6,2.37,7.24,3,11.26-0.03C597.07-252.53,600.4-253.93,601.76-253.82z"/>
	<path class="st1" d="M609.15-252.67c0,0-5.27-2.14-9.91,0.24c-4.64,2.39-6.63,5.07-10.08,5.49c-3.45,0.42-5.06-0.05-5.06-0.05
		s2.17,5.79,8.95,5.34S605.91-252.01,609.15-252.67z"/>
	<path class="st1" d="M622.2-256.86c0,0-6.55,3.43-8.19,8.73c-1.4,4.51-3.16,6.4-4.79,8.2c-2.34,2.58-4.99,3.16-4.99,3.16
		s9.79,4.17,13.92-1.22C622.93-244.23,620.46-254.04,622.2-256.86z"/>
	<path class="st1" d="M615.33-251.98c0.18-0.18,0.05-0.5-0.21-0.51c-1.7-0.07-5.72,0.09-8.72,2.74c-3.91,3.46-5.75,6.04-8.89,7.54
		c-1.94,0.93-3.18,1.27-3.85,1.39c-0.25,0.05-0.33,0.35-0.15,0.52c1.33,1.25,5.5,4.57,10.8,2.83
		C611.89-239.96,612.84-249.48,615.33-251.98z"/>
	<path class="st1" d="M625.38-258.25c0,0-2,0.57-2.57,1.4c-1.28,1.87-0.56,8.9-1.07,11.85c-0.53,3.12-1.58,6.28-3.6,7.72
		c1.88,0,5.74-0.26,8.12-3.56C628.81-244.41,630.96-251.34,625.38-258.25z"/>
	<path class="st1" d="M637.43-254.77c0,0-3.35-0.98-4.14-2.47c-1.72,0.98-6.05-0.27-6.56-0.65c1.63,1.77,4.29,6.93,2.15,13.95
		C630.65-244.73,636.74-246.36,637.43-254.77z"/>
	<path class="st1" d="M590.97-257.66c0,0,3.26-6.03,8.84-6.28c3.41-0.15,8.7,1.44,11.67,4.23c1.88,1.76,6.84,3.41,8.79,2.85
		c-2.47,1.63-4.98,5.48-13.49,2.64C601.01-256.14,598.18-259.19,590.97-257.66z"/>
	<path class="st1" d="M598.97-264.54c0,0,2.84-4.94,8.42-5.18c3.41-0.15,8.11,2.19,11.12,4.95c2.23,2.05,4.56,5.72,6.84,5.77
		c-2.47,1.63-7.66,2.15-11.77-0.6C608.52-263.01,604.88-265.43,598.97-264.54z"/>
	<path class="st1" d="M608.69-270.54c0,0,7.3-4.78,12.47-2.65c3.16,1.3,6.59,5.84,8.15,9.61c1.16,2.8,1.64,4.85,3.68,5.85
		c-2.92,0.44-8.43-1.07-11.37-5.04C618.6-266.87,614.13-270.08,608.69-270.54z"/>
	<path class="st1" d="M645.29-270.02c-0.14-0.2,0.14-0.47,0.43-0.42c2.39,0.41,9.25,1.93,10.79,6.05c1.14,3.07,1.33,6.03-1.29,9.84
		c-1.71,2.49-1.69,4.93-1.27,6.91c0.05,0.24-0.35,0.45-0.58,0.3c-3-1.98-8.21-6.45-6.6-10.92
		C648.5-263.06,648.14-265.98,645.29-270.02z"/>
	<path class="st1" d="M630.87-274.39c0,0,9.36,0.64,12.75,4.65c2.21,2.61,3.01,7.49,2.19,11.48c-0.61,2.97,0.64,6.06,1.77,8.03
		c-6.42-3.49-7.77-5.46-8.56-12.84C638.46-268.22,634.92-272.2,630.87-274.39z"/>
	<path class="st1" d="M621.03-274.34c-0.31-0.09-0.27-0.55,0.06-0.58c2.15-0.19,5.85-0.21,9.22,1.18c3.16,1.3,6.37,5.48,7.4,9.43
		c0.68,2.62,1,7.16,2.52,8.8c0.17,0.19,0.03,0.5-0.23,0.5c-3.04-0.1-7.83-2.82-9.83-8.94C628.78-268.24,625.54-273,621.03-274.34z"
		/>
	<path class="st1" d="M572.67-295.99c0,0-3.33,0.31-4.61,1.11c-1.28,0.8-3.52,2.62-3.52,2.62s-1.78,5.42-3.7,6.79
		c0.31,0.91-0.71,3.33-0.71,3.33s2.86-1.05,4.41-3.03C566.29-287.44,568.06-293.2,572.67-295.99z"/>
	<path class="st1" d="M616.41-314.08c0,0-3.21-2.42-6.79-1.95c-3.58,0.47-8.05,3.21-9.07,7.49c-1.02,4.28,0.65,8.05-1.77,11.79
		c2.19-1,4.88-1.75,6.6-4.77C607.11-304.54,607.2-310.82,616.41-314.08z"/>
	<path class="st1" d="M627.79-308.87c0.27,0.03,0.43-0.29,0.23-0.48c-1.05-1-3.41-3.01-6.12-3.79c-4.37-1.26-8.6,0.57-11.4,3.87
		c-2.79,3.3-3.67,9.57-6.65,10.64c3.07,0.37,6.6-0.09,8.65-2.05C619.27-307.14,620.81-309.62,627.79-308.87z"/>
	<path class="st1" d="M636.13-301.18c0,0-4.65-7.17-10.98-6.8c-6.33,0.37-10.19,8.28-14.37,9.16c2.28,1.4,4.88,2.56,8.74,1.53
		C623.39-298.31,629.67-303.96,636.13-301.18z"/>
	<path class="st1" d="M665.03-306.27c0.08-0.21-0.17-0.39-0.34-0.25c-0.98,0.79-3.06,2.12-5.86,2.02c-3.98-0.14-7.26-1.8-11.51-1.74
		c-3.43,0.05-6.77,3.23-7.94,4.47c-0.14,0.15-0.01,0.4,0.19,0.37c1.47-0.23,5.19-0.63,7.6,0.88
		C649.95-298.8,660.53-294.04,665.03-306.27z"/>
	<path class="st1" d="M660.5-298.52c0,0-7.6,2.22-11.16,0.11c-5.29-3.13-10.49-3.11-18.23,0.63c3.53,0.67,5.71,1.75,8.81,3.84
		C642.35-292.3,655.69-286.87,660.5-298.52z"/>
	<path class="st1" d="M655.2-291.64c0,0-7.53,3.13-14.02-0.84c-7.51-4.58-9.29-4.94-17.72-3.23c3.52,1.18,5.53,3.42,7.22,5.64
		C634.1-285.57,647.65-281.54,655.2-291.64z"/>
	<path class="st1" d="M640.62-284.83c0,0-3.77-0.03-6.91-1.6c-3.1-1.55-5.48-5.58-7.33-6.8c-1.85-1.22-4.4-3.1-9.98-2.06
		c2.16,1.6,3.8,3.9,4.26,5.11s4.49,9.23,10.44,8.74C637.06-281.94,640.62-284.83,640.62-284.83z"/>
	<path class="st1" d="M628.83-280.72c0,0-2.39,0.12-5.37-3.49c-3.35-4.05-5.48-11.61-12.42-12.69c0.8,2.79,0.38,3.55,0.24,4.84
		C611.14-290.76,610.47-275.45,628.83-280.72z"/>
	<path class="st1" d="M617.63-279.62c0,0-3.41-1.18-5.06-3.68c-1.79-2.71-2.17-5.82-1.79-9.62s-1.01-5.41-1.01-5.41
		s-4.11,0.52-5.29,3.17c-1.19,2.65-2.97,10.22,3.49,14.27S617.63-279.62,617.63-279.62z"/>
	<path class="st1" d="M606.36-281.2c0,0-7.58-5.42-1.39-15.95c-0.94,0.25-2.51-0.21-2.51-0.21s-2.76,1.74-4.01,1.53
		c-0.38,1.74-3.28,5.06-3.28,5.06S597.5-281.34,606.36-281.2z"/>
	<path class="st1" d="M632.99-274.94c0,0-1.96-0.33-3.03,0.07c-0.72-0.47-2.49-0.77-3.03-0.72c-0.16-0.65-0.12-2.81,1.41-4.03
		C629.7-276.98,632.99-274.94,632.99-274.94z"/>
	<path class="st1" d="M629.7-280.54c0,0-1.01,0.45-0.87,0.73c0.14,0.28,2.63,3.7,4.94,4.94c3.12,0.35,6.99,1.24,9.99,3.99
		c0-1.19,0.21-7.74-6.87-11.09C635.88-281.43,632.77-280.61,629.7-280.54z"/>
	<path class="st1" d="M643.99-276.26c0,0-1.21-3.94-5.3-5.94c-0.2-0.1-0.2-0.37,0-0.45c1.04-0.45,2.78-1.61,2.85-1.96
		c0.47,0.21,2.88,0.26,3.44,0C645.25-283.61,645.9-280.59,643.99-276.26z"/>
	<path class="st1" d="M636.39-300.54c0,0-3.69-0.95-6.91-0.13c-3.44,0.87-6.19,3.5-9.77,4.02c1.86,0,2.74,0.15,3.16,0.34
		c0.58-0.34,5.08-1.58,7.05-1.44C631.11-298.83,633.53-299.98,636.39-300.54z"/>
</g>
<g id="Layer_4">
	<g>
		<defs>
			<path id="SVGID_1_" d="M355.13-218.28c-1.46,0-2.62,0.91-3.05,1.92h-0.04v-1.62h-2.34v10.11h2.46v-5.56
				c0-1.35,0.74-2.74,2.3-2.74c1.58,0,1.85,1.5,1.85,2.7v5.61h2.46v-6.32C358.76-216.26,357.7-218.28,355.13-218.28z M344.72-207.87
				h2.46v-10.11h-2.46V-207.87z M385.48-217.99v2.24h2.76v7.88h2.46v-7.88h2.76v-2.24H385.48z M389.47-219.31
				c0.82,0,1.49-0.68,1.49-1.53c0-0.84-0.67-1.53-1.49-1.53c-0.82,0-1.49,0.68-1.49,1.53C387.98-220,388.65-219.31,389.47-219.31z
				 M364.01-219.31c0.82,0,1.49-0.68,1.49-1.53c0-0.84-0.67-1.53-1.49-1.53c-0.82,0-1.49,0.68-1.49,1.53
				C362.52-220,363.19-219.31,364.01-219.31z M381.29-207.87h2.46v-10.11h-2.46V-207.87z M376.31-212.43c0,1.35-0.74,2.74-2.3,2.74
				c-1.58,0-1.85-1.5-1.85-2.7v-5.6h-2.46v6.32c0,2.07,1.07,4.09,3.63,4.09c1.46,0,2.63-0.91,3.06-1.92h0.04v1.62h2.34v-10.11h-2.46
				V-212.43z M360.02-215.75h2.76v7.88h2.46v-7.88H368v-2.24h-7.98V-215.75z"/>
		</defs>
		<clipPath id="SVGID_6_">
			<use xlink:href="#SVGID_1_"  style="overflow:visible;"/>
		</clipPath>
		<rect x="341.98" y="-225.11" class="st6" width="54.22" height="20.26"/>
	</g>
	<g>
		<defs>
			<path id="SVGID_3_" d="M576.84-218.28c-1.46,0-2.62,0.91-3.05,1.92h-0.04v-1.62h-2.34v10.11h2.46v-5.56
				c0-1.35,0.74-2.74,2.3-2.74c1.58,0,1.85,1.5,1.85,2.7v5.61h2.46v-6.32C580.47-216.26,579.4-218.28,576.84-218.28z M566.42-207.87
				h2.46v-10.11h-2.46V-207.87z M607.19-217.99v2.24h2.76v7.88h2.46v-7.88h2.76v-2.24H607.19z M611.18-219.31
				c0.82,0,1.49-0.68,1.49-1.53c0-0.84-0.67-1.53-1.49-1.53c-0.82,0-1.49,0.68-1.49,1.53C609.69-220,610.36-219.31,611.18-219.31z
				 M585.71-219.31c0.82,0,1.49-0.68,1.49-1.53c0-0.84-0.67-1.53-1.49-1.53c-0.82,0-1.49,0.68-1.49,1.53
				C584.23-220,584.89-219.31,585.71-219.31z M603-207.87h2.46v-10.11H603V-207.87z M598.02-212.43c0,1.35-0.74,2.74-2.3,2.74
				c-1.58,0-1.85-1.5-1.85-2.7v-5.6h-2.46v6.32c0,2.07,1.07,4.09,3.63,4.09c1.46,0,2.63-0.91,3.06-1.92h0.04v1.62h2.34v-10.11h-2.46
				V-212.43z M581.72-215.75h2.76v7.88h2.46v-7.88h2.76v-2.24h-7.98V-215.75z"/>
		</defs>
		<clipPath id="SVGID_7_">
			<use xlink:href="#SVGID_3_"  style="overflow:visible;"/>
		</clipPath>
		<rect x="563.68" y="-225.11" style="clip-path:url(#SVGID_7_);fill:#FFFFFF;" width="54.22" height="20.26"/>
	</g>
</g>
<g id="Layer_5">
	
		<ellipse transform="matrix(0.615 -0.7885 0.7885 0.615 488.564 398.1806)" class="st4" cx="652.08" cy="-301.27" rx="2.7" ry="9.68"/>
	
		<rect x="646.83" y="-314.14" transform="matrix(0.7885 0.615 -0.615 0.7885 -49.9249 -468.7089)" class="st4" width="19.37" height="14.4"/>
	
		<ellipse transform="matrix(0.615 -0.7885 0.7885 0.615 500.9548 400.6752)" class="st5" cx="660.83" cy="-312.71" rx="1.35" ry="9.54"/>
	
		<ellipse transform="matrix(0.7344 -0.6787 0.6787 0.7344 349.5273 280.3059)" class="st4" cx="532.9" cy="-306.42" rx="9.38" ry="2.7"/>
	
		<rect x="518.63" y="-318.92" transform="matrix(0.7344 -0.6787 0.6787 0.7344 351.8242 275.5858)" class="st4" width="18.77" height="14.4"/>
	
		<ellipse transform="matrix(0.7344 -0.6787 0.6787 0.7344 354.0223 270.8178)" class="st5" cx="523.02" cy="-316.91" rx="9.24" ry="1.35"/>
	
		<ellipse transform="matrix(0.7406 -0.6719 0.6719 0.7406 309.3683 291.4941)" class="st4" cx="532.25" cy="-254.97" rx="2.7" ry="9.68"/>
	
		<rect x="517.23" y="-257.34" transform="matrix(-0.6719 -0.7406 0.7406 -0.6719 1066.2085 -27.9639)" class="st4" width="19.37" height="14.4"/>
	
		<ellipse transform="matrix(0.7406 -0.6719 0.6719 0.7406 300.0536 286.9253)" class="st5" cx="521.68" cy="-245.19" rx="1.35" ry="9.54"/>
	
		<ellipse transform="matrix(0.4791 -0.8777 0.8777 0.4791 565.9247 436.3274)" class="st4" cx="650.61" cy="-258.68" rx="9.68" ry="2.7"/>
	
		<rect x="647.24" y="-262.42" transform="matrix(-0.4791 0.8777 -0.8777 -0.4791 747.668 -954.1119)" class="st4" width="19.37" height="14.4"/>
	
		<ellipse transform="matrix(0.4791 -0.8777 0.8777 0.4791 566.5932 451.0145)" class="st5" cx="663.32" cy="-251.9" rx="9.54" ry="1.35"/>
</g>
<g id="Layer_6">
	<circle class="st0" cx="101.03" cy="96.03" r="92"/>
	<path class="st1" d="M52.99,65.94c0,0-3.16-7.8-10.79-8.25c-7.01-0.41-7.74,5.52-11.57,5.43c-0.23-0.01-0.31,0.36-0.11,0.5
		c4.53,3.15,9.03,6.44,15.56,3.22C50.72,64.55,52.99,65.94,52.99,65.94z"/>
	<path class="st1" d="M58.85,71.27c0,0-2.99-6.52-10.02-4.36c-9.81,3-10.89,1.36-16.05-0.82c1.72,7.36,10.73,8.69,16.16,6.48
		C54.37,70.34,58.85,71.27,58.85,71.27z"/>
	<path class="st1" d="M62.15,71.92c0,0-6.8-2.22-13.31,1.41c-0.48,0.27-1.21,0.6-1.73,0.74c-5.51,1.43-9.66-1.55-9.66-1.55
		s6.67,13.31,17.83,8.61C56.57,75.5,62.15,71.92,62.15,71.92z"/>
	<path class="st1" d="M54.35,82.27c0,0-3.86,1.08-6.49,0.66c0.95,2.76,3.63,4.26,5.05,4.88c0.38,0.17,0.79-0.16,0.73-0.57
		C53.45,86.05,53.33,83.93,54.35,82.27z"/>
	<path class="st1" d="M103.36,62.46c0,0-3.98-0.07-5.86,1.74c-0.56-3.14-5.07-5.87-5.07-5.87S100.85,57.15,103.36,62.46z"/>
	<path class="st1" d="M103.01,63.29c0,0-9.35,1.74-9.98,9.77c-0.63,8.02,4.67,7.74,0.77,17.44c1.95-0.91,9.12-5.41,7.68-11.18
		C99.76,72.42,99.87,66.61,103.01,63.29z"/>
	<path class="st1" d="M114.24,58.88c0,0-11.64,1.24-12.59,9.23c-1.13,9.42,3.06,11.74-0.62,17.21c1.95-0.91,9.23-8.24,8.57-15.22
		C108.97,63.41,111.96,60.64,114.24,58.88z"/>
	<path class="st1" d="M92.82,70.34c0,0-1.08,4.29-0.35,7.19c0.44,1.72,2.36,5.38,1.85,8.41c-0.94,5.62-5.48,8.86-14.27,7.95
		c2.42-1.15,5.95-4.22,6.52-7.76c0.44-2.72-0.31-6.09,0.45-8.67S92.82,70.34,92.82,70.34z"/>
	<path class="st1" d="M86.3,76.71c0.25-0.07,0.49,0.17,0.41,0.42c-0.32,1.03-0.88,3.35-0.57,6.56c0.41,4.27-2.82,8.16-6.84,9.88
		c-2.47,1.06-7.43,0.17-8.92-0.14c-0.22-0.04-0.32-0.28-0.23-0.48c0.13-0.27,0.29-0.64,0.34-0.96c0.02-0.15,0.14-0.25,0.29-0.27
		c1.04-0.16,3.94-1.94,5.03-3.82c1.21-2.09,2.47-4.21,3.58-5.71C80.47,80.75,81.77,77.98,86.3,76.71z"/>
	<path class="st1" d="M96.61,64.69c0,0-2.7-10.79-16.56-5.63c3.63,0.44,9.35,3.62,11.4,11.28c1.02-1.19,1.53-1.14,1.53-1.14
		S94.06,66.2,96.61,64.69z"/>
	<path class="st1" d="M90.52,70.88c0,0-2.38-10.14-12.08-11.35c-2.85-0.28-7.88,2.14-10.44,6.19c4.47-1.84,15.77,2.79,18.92,9.02
		C87.8,72.99,90.52,70.88,90.52,70.88z"/>
	<path class="st1" d="M86.52,75.18c0,0-3.83-6.61-13.36-8.86c-3.22-0.76-6.67,0.3-8.75,2.88c-1.6,1.99-2.26,4.11-2.26,4.11
		s9.4-2.31,15.85,1.87c1.54,1,3.52,1.64,5.22,0.93C85.09,75.32,86.52,75.18,86.52,75.18z"/>
	<path class="st1" d="M79.2,77.28c0.24-0.03,0.29-0.35,0.09-0.47c-1.27-0.76-3.92-2.2-6.55-2.74c-5.06-1.03-14.47-1.88-17.86,10.69
		c-0.07,0.25,0.24,0.43,0.42,0.26c2.82-2.56,4.54-3.18,6.66-3.4c1.85-0.19,7.4,0.88,11.54-0.8C75.36,80.06,77,77.56,79.2,77.28z"/>
	<path class="st1" d="M74.33,81.01c0,0-2.84,1.58-4.88,1.63c-2.05,0.05-5.35-0.37-8,0c-2.65,0.37-5.86,2.65-6.79,4.79
		c-0.93,2.14-1.91,4.93-0.84,8.98c1.12-2.37,4.56-4.79,6.6-5.44c2.05-0.65,6.7-1.31,9.26-3.12C72.24,86.05,74.33,81.01,74.33,81.01z
		"/>
	<path class="st1" d="M70.52,87.81c0,0-1.72,1.63-4.09,2.28c-2.37,0.65-6.47,1.45-8.33,2.88c-0.96,0.74-5.35,4.23-5.07,9.02
		c-0.01,3.16,2.79,6.49,2.79,6.49s0.05-3,2.28-5.14c2.23-2.14,5.04-2.46,7.91-5.81C68.99,94.04,69.78,92.22,70.52,87.81z"/>
	<path class="st1" d="M69.22,94.32c0,0-1.44,2.98-4.14,5.02c-2.7,2.05-4.98,2.88-6.84,5.16c-1.86,2.28-4.33,8.19,1.95,15.21
		c-0.19-9.3,4.56-8.6,7.16-12.98C68.33,105.11,71.12,100.13,69.22,94.32z"/>
	<path class="st1" d="M69.61,103.11c0,0-0.63,2.95-2.02,4.88c-1.26,1.75-4.73,4.07-5.49,5.49c-1.98,3.69-2.09,10.6,6.65,16.42
		c-1.67-6.88,0.27-9.79,2.56-15.4C73.5,109.15,69.61,103.11,69.61,103.11z"/>
	<path class="st1" d="M72.43,109.57c0,0,0.88,3.35-2.19,9.58c-2.98,6.05-1.77,16.28,10.37,16.28c0,0-4.14-4-4.51-8.42
		c-0.27-3.26,1.07-5.63,1.02-8.42C77.08,115.81,76.36,112.72,72.43,109.57z"/>
	<path class="st1" d="M77.54,116.22c0,0,0.61,3.35-0.33,6.28c-2.09,6.56,3.4,17.44,15.3,14.19c-3.53-1.53-7.51-4.63-8.43-8.55
		c-0.63-2.7-0.98-5.46-2.37-7.82C80.64,118.49,77.54,116.22,77.54,116.22z"/>
	<path class="st1" d="M81.94,119.89c0,0,1.6,2.54,2.22,6.41c0.15,0.94,0.96,5.14,5.97,8.45c0.73,0.48,4.77,4.17,13.33-1.37
		c-5.4-0.88-6.98-2.98-8.14-4.33c-1.16-1.35-3.24-4.97-6-7.07C86.19,119.62,81.94,119.89,81.94,119.89z"/>
	<path class="st1" d="M51.77,103.38c0.15-0.09,0.32,0.06,0.26,0.22c-0.56,1.47-2.15,5.92-1.69,8.19c0.74,3.69,1.48,12.15-5.23,15.93
		c-0.29,0.16-0.63-0.1-0.53-0.42c1.47-4.68-1.74-7.57-1.67-13.11C42.96,109.11,49.91,104.52,51.77,103.38z"/>
	<path class="st1" d="M45.1,107.95c0,0-3.79,2.48-4.02,4.81c-0.2,2.05-0.45,4.76,1.59,8.37c1.42,2.53,0.54,4.95-0.12,6.17
		c-0.19,0.34-0.82,0.37-1.05,0.03c-1.23-1.78-4.52-5.97-8.62-6.68c-0.5-0.09-0.83-0.44-0.81-0.83
		C32.22,117.06,35.25,110.15,45.1,107.95z"/>
	<path class="st1" d="M52.6,104.32c0,0-1.64,3.66-1.43,6.07c0.21,2.41,1.26,9.31-0.56,11.97c1.78-1.36,3.73-0.17,6.91-4.99
		c-1.36-2.37-2.55-5.41-2.09-8.27C54.31,107.95,52.67,105.47,52.6,104.32z"/>
	<path class="st1" d="M51.49,102.75"/>
	<path class="st1" d="M70.88,103.79c0,0-0.65-1.06-0.9-1.27c0.33-0.7,0.64-3.72,0.4-4.38c0.8-0.21,4.73-0.19,6.4,0.9
		C75.71,99.2,71.96,101,70.88,103.79z"/>
	<path class="st1" d="M75.29,111.55c0,0-1.67-2.07-2.88-2.72c0-0.65-0.43-2.79-1.35-4.63c0.7-1.09,3.69-4.77,7.86-4.86
		c4.03-0.09,10.33,3.44,10.33,3.44S79.52,102.71,75.29,111.55z"/>
	<path class="st1" d="M77.4,115.6c0,0-0.45-2.04-1.6-3.42c0.23-0.47,1.72-3.67,4.21-5.47c2.49-1.79,11.58-7.37,18.49,2.7
		c-3.23-0.35-7.27,0.09-9.67,1.44c-1.53,0.86-3.02,2.44-5.91,3.86C80.63,115.84,77.4,115.6,77.4,115.6z"/>
	<path class="st1" d="M102.92,112.11c0.1-0.08,0.1-0.24-0.02-0.31c-0.86-0.54-4.17-2.33-9.17-1.62c-5.86,0.84-6.64,3.08-9.08,4.33
		c-2.14,1.09-4.33,1.53-5.8,1.59c-0.2,0.01-0.26,0.25-0.1,0.36c1.28,0.85,2.62,2.42,2.9,2.76c0.04,0.04,0.08,0.06,0.13,0.06
		c0.5,0.01,3.11,0.06,4.14,0.4c0.08,0.03,0.15,0,0.2-0.06c0.52-0.68,1.76-1.5,3.11-1.68c1.58-0.21,4.3,0.7,8.16-0.77
		C99.35,116.42,101.21,113.49,102.92,112.11z"/>
	<path class="st1" d="M112.15,119.46c0,0-3.35-3.67-8.13-3.23c-4.78,0.44-6.9,2.07-8.74,2.48c-2.48,0.56-6.74-1.06-8.31,1.17
		c1.22,0.52,3.93,1.67,5.23,3.94c1.6,2.37,7.24,3,11.26-0.03C107.46,120.75,110.79,119.35,112.15,119.46z"/>
	<path class="st1" d="M119.54,120.61c0,0-5.27-2.14-9.91,0.24c-4.64,2.39-6.63,5.07-10.08,5.49s-5.06-0.05-5.06-0.05
		s2.17,5.79,8.95,5.34C110.23,131.18,116.3,121.27,119.54,120.61z"/>
	<path class="st1" d="M132.59,116.42c0,0-6.55,3.43-8.19,8.73c-1.4,4.51-3.16,6.4-4.79,8.2c-2.34,2.58-4.99,3.16-4.99,3.16
		s9.79,4.17,13.92-1.22C133.32,129.05,130.85,119.24,132.59,116.42z"/>
	<path class="st1" d="M125.72,121.3c0.18-0.18,0.05-0.5-0.21-0.51c-1.7-0.07-5.72,0.09-8.72,2.74c-3.91,3.46-5.75,6.04-8.89,7.54
		c-1.94,0.93-3.18,1.27-3.85,1.39c-0.25,0.05-0.33,0.35-0.15,0.52c1.33,1.25,5.5,4.57,10.8,2.83
		C122.27,133.32,123.23,123.8,125.72,121.3z"/>
	<path class="st1" d="M135.76,115.03c0,0-2,0.57-2.57,1.4c-1.28,1.87-0.56,8.9-1.07,11.85c-0.53,3.12-1.58,6.28-3.6,7.72
		c1.88,0,5.74-0.26,8.12-3.56C139.2,128.87,141.35,121.93,135.76,115.03z"/>
	<path class="st1" d="M147.82,118.5c0,0-3.35-0.98-4.14-2.47c-1.72,0.98-6.05-0.27-6.56-0.65c1.63,1.77,4.29,6.93,2.15,13.95
		C141.04,128.54,147.12,126.92,147.82,118.5z"/>
	<path class="st1" d="M101.36,115.62c0,0,3.26-6.03,8.84-6.28c3.41-0.15,8.7,1.44,11.67,4.23c1.88,1.76,6.84,3.41,8.79,2.85
		c-2.47,1.63-4.98,5.48-13.49,2.64C111.39,117.14,108.57,114.08,101.36,115.62z"/>
	<path class="st1" d="M109.36,108.73c0,0,2.84-4.94,8.42-5.18c3.41-0.15,8.11,2.19,11.12,4.95c2.23,2.05,4.56,5.72,6.84,5.77
		c-2.47,1.63-7.66,2.15-11.77-0.6C118.91,110.27,115.26,107.85,109.36,108.73z"/>
	<path class="st1" d="M119.08,102.74c0,0,7.3-4.78,12.47-2.65c3.16,1.3,6.59,5.84,8.15,9.61c1.16,2.8,1.64,4.85,3.68,5.85
		c-2.92,0.44-8.43-1.07-11.37-5.04C128.98,106.41,124.52,103.2,119.08,102.74z"/>
	<path class="st1" d="M155.68,103.26c-0.14-0.2,0.14-0.47,0.43-0.42c2.39,0.41,9.25,1.93,10.79,6.05c1.14,3.07,1.33,6.03-1.29,9.84
		c-1.71,2.49-1.69,4.93-1.27,6.91c0.05,0.24-0.35,0.45-0.58,0.3c-3-1.98-8.21-6.45-6.6-10.92
		C158.89,110.22,158.53,107.3,155.68,103.26z"/>
	<path class="st1" d="M141.26,98.89c0,0,9.36,0.64,12.75,4.65c2.21,2.61,3.01,7.49,2.19,11.48c-0.61,2.97,0.64,6.06,1.77,8.03
		c-6.42-3.49-7.77-5.46-8.56-12.84C148.85,105.06,145.3,101.08,141.26,98.89z"/>
	<path class="st1" d="M131.42,98.94c-0.31-0.09-0.27-0.55,0.06-0.58c2.15-0.19,5.85-0.21,9.22,1.18c3.16,1.3,6.37,5.48,7.4,9.43
		c0.68,2.62,1,7.16,2.52,8.8c0.17,0.19,0.03,0.5-0.23,0.5c-3.04-0.1-7.83-2.82-9.83-8.94C139.17,105.04,135.93,100.28,131.42,98.94z
		"/>
	<path class="st1" d="M83.05,77.29c0,0-3.33,0.31-4.61,1.11c-1.28,0.8-3.52,2.62-3.52,2.62s-1.78,5.42-3.7,6.79
		c0.31,0.91-0.71,3.33-0.71,3.33s2.86-1.05,4.41-3.03C76.68,85.84,78.44,80.07,83.05,77.29z"/>
	<path class="st1" d="M126.8,59.2c0,0-3.21-2.42-6.79-1.95c-3.58,0.47-8.05,3.21-9.07,7.49s0.65,8.05-1.77,11.79
		c2.19-1,4.88-1.75,6.6-4.77C117.5,68.74,117.59,62.46,126.8,59.2z"/>
	<path class="st1" d="M138.17,64.41c0.27,0.03,0.43-0.29,0.23-0.48c-1.05-1-3.41-3.01-6.12-3.79c-4.37-1.26-8.6,0.57-11.4,3.87
		c-2.79,3.3-3.67,9.57-6.65,10.64c3.07,0.37,6.6-0.09,8.65-2.05C129.66,66.14,131.2,63.66,138.17,64.41z"/>
	<path class="st1" d="M146.52,72.09c0,0-4.65-7.17-10.98-6.8c-6.33,0.37-10.19,8.28-14.37,9.16c2.28,1.4,4.88,2.56,8.74,1.53
		S140.05,69.31,146.52,72.09z"/>
	<path class="st1" d="M175.42,67.01c0.08-0.21-0.17-0.39-0.34-0.25c-0.98,0.79-3.06,2.12-5.86,2.02c-3.98-0.14-7.26-1.8-11.51-1.74
		c-3.43,0.05-6.77,3.23-7.94,4.47c-0.14,0.15-0.01,0.4,0.19,0.37c1.47-0.23,5.19-0.63,7.6,0.88
		C160.34,74.48,170.92,79.24,175.42,67.01z"/>
	<path class="st1" d="M170.89,74.76c0,0-7.6,2.22-11.16,0.11c-5.29-3.13-10.49-3.11-18.23,0.63c3.53,0.67,5.71,1.75,8.81,3.84
		C152.74,80.98,166.08,86.41,170.89,74.76z"/>
	<path class="st1" d="M165.59,81.64c0,0-7.53,3.13-14.02-0.84c-7.51-4.58-9.29-4.94-17.72-3.23c3.52,1.18,5.53,3.42,7.22,5.64
		C144.48,87.71,158.04,91.74,165.59,81.64z"/>
	<path class="st1" d="M151.01,88.45c0,0-3.77-0.03-6.91-1.6c-3.1-1.55-5.48-5.58-7.33-6.8c-1.85-1.22-4.4-3.1-9.98-2.06
		c2.16,1.6,3.8,3.9,4.26,5.11c0.45,1.21,4.49,9.23,10.44,8.74C147.45,91.34,151.01,88.45,151.01,88.45z"/>
	<path class="st1" d="M139.22,92.56c0,0-2.39,0.12-5.37-3.49c-3.35-4.05-5.48-11.61-12.42-12.69c0.8,2.79,0.38,3.55,0.24,4.84
		S120.86,97.83,139.22,92.56z"/>
	<path class="st1" d="M128.02,93.66c0,0-3.41-1.18-5.06-3.68c-1.79-2.71-2.17-5.82-1.79-9.62c0.38-3.8-1.01-5.41-1.01-5.41
		s-4.11,0.52-5.29,3.17c-1.19,2.65-2.97,10.22,3.49,14.27C124.81,96.43,128.02,93.66,128.02,93.66z"/>
	<path class="st1" d="M116.75,92.08c0,0-7.58-5.42-1.39-15.95c-0.94,0.25-2.51-0.21-2.51-0.21s-2.76,1.74-4.01,1.53
		c-0.38,1.74-3.28,5.06-3.28,5.06S107.89,91.94,116.75,92.08z"/>
	<path class="st1" d="M143.38,98.33c0,0-1.96-0.33-3.03,0.07c-0.72-0.47-2.49-0.77-3.03-0.72c-0.16-0.65-0.12-2.81,1.41-4.03
		C140.09,96.29,143.38,98.33,143.38,98.33z"/>
	<path class="st1" d="M140.09,92.74c0,0-1.01,0.45-0.87,0.73c0.14,0.28,2.63,3.7,4.94,4.94c3.12,0.35,6.99,1.24,9.99,3.99
		c0-1.19,0.21-7.74-6.87-11.09C146.26,91.85,143.16,92.67,140.09,92.74z"/>
	<path class="st1" d="M154.38,97.01c0,0-1.21-3.94-5.3-5.94c-0.2-0.1-0.2-0.37,0-0.45c1.04-0.45,2.78-1.61,2.85-1.96
		c0.47,0.21,2.88,0.26,3.44,0C155.64,89.67,156.29,92.69,154.38,97.01z"/>
	<path class="st1" d="M146.78,72.74c0,0-3.69-0.95-6.91-0.13c-3.44,0.87-6.19,3.5-9.77,4.02c1.86,0,2.74,0.15,3.16,0.34
		c0.58-0.34,5.08-1.58,7.05-1.44C141.5,74.45,143.92,73.29,146.78,72.74z"/>
	<ellipse transform="matrix(0.615 -0.7885 0.7885 0.615 5.762 155.821)" class="st4" cx="162.46" cy="72.01" rx="2.7" ry="9.68"/>
	
		<rect x="157.22" y="59.13" transform="matrix(0.7885 0.615 -0.615 0.7885 76.1011 -88.6211)" class="st4" width="19.37" height="14.4"/>
	
		<ellipse transform="matrix(0.615 -0.7885 0.7885 0.615 18.1528 158.3156)" class="st5" cx="171.21" cy="60.57" rx="1.35" ry="9.54"/>
	
		<ellipse transform="matrix(0.7344 -0.6787 0.6787 0.7344 -33.8785 47.1383)" class="st4" cx="43.29" cy="66.85" rx="9.38" ry="2.7"/>
	
		<rect x="29.02" y="54.36" transform="matrix(0.7344 -0.6787 0.6787 0.7344 -31.5816 42.4182)" class="st4" width="18.77" height="14.4"/>
	
		<ellipse transform="matrix(0.7344 -0.6787 0.6787 0.7344 -29.3834 37.6501)" class="st5" cx="33.41" cy="56.37" rx="9.24" ry="1.35"/>
	
		<ellipse transform="matrix(0.7406 -0.6719 0.6719 0.7406 -68.4328 59.3348)" class="st4" cx="42.64" cy="118.31" rx="2.7" ry="9.68"/>
	
		<rect x="27.62" y="115.94" transform="matrix(-0.6719 -0.7406 0.7406 -0.6719 -28.8406 233.5036)" class="st4" width="19.37" height="14.4"/>
	
		<ellipse transform="matrix(0.7406 -0.6719 0.6719 0.7406 -77.7475 54.7659)" class="st5" cx="32.06" cy="128.09" rx="1.35" ry="9.54"/>
	
		<ellipse transform="matrix(0.4791 -0.8777 0.8777 0.4791 -16.7339 201.0019)" class="st4" cx="160.99" cy="114.6" rx="9.68" ry="2.7"/>
	
		<rect x="157.63" y="110.86" transform="matrix(-0.4791 0.8777 -0.8777 -0.4791 351.1033 27.7698)" class="st4" width="19.37" height="14.4"/>
	
		<ellipse transform="matrix(0.4791 -0.8777 0.8777 0.4791 -16.0654 215.6889)" class="st5" cx="173.7" cy="121.38" rx="9.54" ry="1.35"/>
	<circle class="st0" cx="433.12" cy="-25.14" r="92"/>
	<path id="SVGID_x5F_8_x5F_" style="fill:none;" d="M496.41-22.64c0,34.53-28,62.53-62.53,62.53s-62.53-28-62.53-62.53
		s28-62.53,62.53-62.53S496.41-57.17,496.41-22.64z"/>
	<text>	<textPath  xlink:href="#SVGID_x5F_8_x5F_" startOffset="94.4707%">
<tspan  style="fill:#FFFFFF; font-family:'Avenir-Black'; font-size:12px;">Knudo</tspan>	</textPath>
</text>
	<path class="st1" d="M385.07-55.24c0,0-3.16-7.8-10.79-8.25c-7.01-0.41-7.74,5.52-11.57,5.43c-0.23-0.01-0.31,0.36-0.11,0.5
		c4.53,3.15,9.03,6.44,15.56,3.22C382.8-56.62,385.07-55.24,385.07-55.24z"/>
	<path class="st1" d="M390.93-49.9c0,0-2.99-6.52-10.02-4.36c-9.81,3-10.89,1.36-16.05-0.82c1.72,7.36,10.73,8.69,16.16,6.48
		C386.45-50.83,390.93-49.9,390.93-49.9z"/>
	<path class="st1" d="M394.23-49.25c0,0-6.8-2.22-13.31,1.41c-0.48,0.27-1.21,0.6-1.73,0.74c-5.51,1.43-9.66-1.55-9.66-1.55
		s6.67,13.31,17.83,8.61C388.65-45.67,394.23-49.25,394.23-49.25z"/>
	<path class="st1" d="M386.43-38.9c0,0-3.86,1.08-6.49,0.66c0.95,2.76,3.63,4.26,5.05,4.88c0.38,0.17,0.79-0.16,0.73-0.57
		C385.54-35.12,385.42-37.24,386.43-38.9z"/>
	<path class="st1" d="M435.44-58.72c0,0-3.98-0.07-5.86,1.74c-0.56-3.14-5.07-5.87-5.07-5.87S432.93-64.02,435.44-58.72z"/>
	<path class="st1" d="M435.09-57.88c0,0-9.35,1.74-9.98,9.77s4.67,7.74,0.77,17.44c1.95-0.91,9.12-5.41,7.68-11.18
		C431.84-48.75,431.95-54.57,435.09-57.88z"/>
	<path class="st1" d="M446.33-62.3c0,0-11.64,1.24-12.59,9.23c-1.13,9.42,3.06,11.74-0.62,17.21c1.95-0.91,9.23-8.24,8.57-15.22
		C441.05-57.77,444.05-60.53,446.33-62.3z"/>
	<path class="st1" d="M424.91-50.83c0,0-1.08,4.29-0.35,7.19c0.44,1.72,2.36,5.38,1.85,8.41c-0.94,5.62-5.48,8.86-14.27,7.95
		c2.42-1.15,5.95-4.22,6.52-7.76c0.44-2.72-0.31-6.09,0.45-8.67C419.88-46.3,424.91-50.83,424.91-50.83z"/>
	<path class="st1" d="M418.39-44.46c0.25-0.07,0.49,0.17,0.41,0.42c-0.32,1.03-0.88,3.35-0.57,6.56c0.41,4.27-2.82,8.16-6.84,9.88
		c-2.47,1.06-7.43,0.17-8.92-0.14c-0.22-0.04-0.32-0.28-0.23-0.48c0.13-0.27,0.29-0.64,0.34-0.96c0.02-0.15,0.14-0.25,0.29-0.27
		c1.04-0.16,3.94-1.94,5.03-3.82c1.21-2.09,2.47-4.21,3.58-5.71C412.56-40.42,413.85-43.19,418.39-44.46z"/>
	<path class="st1" d="M428.7-56.48c0,0-2.7-10.79-16.56-5.63c3.63,0.44,9.35,3.62,11.4,11.28c1.02-1.19,1.53-1.14,1.53-1.14
		S426.14-54.97,428.7-56.48z"/>
	<path class="st1" d="M422.6-50.3c0,0-2.38-10.14-12.08-11.35c-2.85-0.28-7.88,2.14-10.44,6.19c4.47-1.84,15.77,2.79,18.92,9.02
		C419.88-48.18,422.6-50.3,422.6-50.3z"/>
	<path class="st1" d="M418.6-45.99c0,0-3.83-6.61-13.36-8.86c-3.22-0.76-6.67,0.3-8.75,2.88c-1.6,1.99-2.26,4.11-2.26,4.11
		s9.4-2.31,15.85,1.87c1.54,1,3.52,1.64,5.22,0.93C417.18-45.85,418.6-45.99,418.6-45.99z"/>
	<path class="st1" d="M411.29-43.89c0.23-0.03,0.29-0.35,0.09-0.47c-1.27-0.76-3.92-2.2-6.55-2.74
		c-5.06-1.03-14.47-1.88-17.86,10.69c-0.07,0.25,0.24,0.43,0.42,0.26c2.82-2.56,4.54-3.18,6.66-3.4c1.85-0.19,7.4,0.88,11.54-0.8
		C407.44-41.11,409.08-43.61,411.29-43.89z"/>
	<path class="st1" d="M406.42-40.16c0,0-2.84,1.58-4.88,1.63s-5.35-0.37-8,0s-5.86,2.65-6.79,4.79s-1.91,4.93-0.84,8.98
		c1.12-2.37,4.56-4.79,6.6-5.44s6.7-1.31,9.26-3.12C404.33-35.12,406.42-40.16,406.42-40.16z"/>
	<path class="st1" d="M402.6-33.37c0,0-1.72,1.63-4.09,2.28c-2.37,0.65-6.47,1.45-8.33,2.88c-0.96,0.74-5.35,4.23-5.07,9.02
		c-0.01,3.16,2.79,6.49,2.79,6.49s0.05-3,2.28-5.14c2.23-2.14,5.04-2.46,7.91-5.81C401.07-27.14,401.86-28.95,402.6-33.37z"/>
	<path class="st1" d="M401.3-26.86c0,0-1.44,2.98-4.14,5.02s-4.98,2.88-6.84,5.16c-1.86,2.28-4.33,8.19,1.95,15.21
		c-0.19-9.3,4.56-8.6,7.16-12.98C400.41-16.06,403.21-21.04,401.3-26.86z"/>
	<path class="st1" d="M401.7-18.07c0,0-0.63,2.95-2.02,4.88c-1.26,1.75-4.73,4.07-5.49,5.49c-1.98,3.69-2.09,10.6,6.65,16.42
		c-1.67-6.88,0.27-9.79,2.56-15.4C405.58-12.02,401.7-18.07,401.7-18.07z"/>
	<path class="st1" d="M404.51-11.6c0,0,0.88,3.35-2.19,9.58c-2.98,6.05-1.77,16.28,10.37,16.28c0,0-4.14-4-4.51-8.42
		c-0.27-3.26,1.07-5.63,1.02-8.42S408.45-8.45,404.51-11.6z"/>
	<path class="st1" d="M409.63-4.95c0,0,0.61,3.35-0.33,6.28c-2.09,6.56,3.4,17.44,15.3,14.19c-3.53-1.53-7.51-4.63-8.43-8.55
		c-0.63-2.7-0.98-5.46-2.37-7.82C412.73-2.68,409.63-4.95,409.63-4.95z"/>
	<path class="st1" d="M414.02-1.29c0,0,1.6,2.54,2.22,6.41c0.15,0.94,0.96,5.14,5.97,8.45c0.73,0.48,4.77,4.17,13.33-1.37
		c-5.4-0.88-6.98-2.98-8.14-4.33c-1.16-1.35-3.24-4.97-6-7.07C418.28-1.55,414.02-1.29,414.02-1.29z"/>
	<path class="st1" d="M383.85-17.8c0.15-0.09,0.32,0.06,0.26,0.22c-0.56,1.47-2.15,5.92-1.69,8.19c0.74,3.69,1.48,12.15-5.23,15.93
		c-0.29,0.16-0.63-0.1-0.53-0.42c1.47-4.68-1.74-7.57-1.67-13.11C375.05-12.06,381.99-16.66,383.85-17.8z"/>
	<path class="st1" d="M377.19-13.23c0,0-3.79,2.48-4.02,4.81c-0.2,2.05-0.45,4.76,1.59,8.37c1.42,2.53,0.54,4.95-0.12,6.17
		c-0.19,0.34-0.82,0.37-1.05,0.03c-1.23-1.78-4.52-5.97-8.62-6.68c-0.5-0.09-0.83-0.44-0.81-0.83
		C364.3-4.11,367.34-11.03,377.19-13.23z"/>
	<path class="st1" d="M384.69-16.86c0,0-1.64,3.66-1.43,6.07s1.26,9.31-0.56,11.97c1.78-1.36,3.73-0.17,6.91-4.99
		c-1.36-2.37-2.55-5.41-2.09-8.27C386.4-13.23,384.76-15.71,384.69-16.86z"/>
	<path class="st1" d="M383.57-18.43"/>
	<path class="st1" d="M402.97-17.38c0,0-0.65-1.06-0.9-1.27c0.33-0.7,0.64-3.72,0.4-4.38c0.8-0.21,4.73-0.19,6.4,0.9
		C407.79-21.97,404.05-20.17,402.97-17.38z"/>
	<path class="st1" d="M407.37-9.62c0,0-1.67-2.07-2.88-2.72c0-0.65-0.43-2.79-1.35-4.63c0.7-1.09,3.69-4.77,7.86-4.86
		c4.03-0.09,10.33,3.44,10.33,3.44S411.6-18.46,407.37-9.62z"/>
	<path class="st1" d="M409.49-5.58c0,0-0.45-2.04-1.6-3.42c0.23-0.47,1.72-3.67,4.21-5.47s11.58-7.37,18.49,2.7
		c-3.23-0.35-7.27,0.09-9.67,1.44c-1.53,0.86-3.02,2.44-5.91,3.86C412.71-5.34,409.49-5.58,409.49-5.58z"/>
	<path class="st1" d="M435-9.07c0.1-0.08,0.1-0.24-0.02-0.31c-0.86-0.54-4.17-2.33-9.17-1.62c-5.86,0.84-6.64,3.08-9.08,4.33
		c-2.14,1.09-4.33,1.53-5.8,1.59c-0.2,0.01-0.26,0.25-0.1,0.36c1.28,0.85,2.62,2.42,2.9,2.76c0.04,0.04,0.08,0.06,0.13,0.06
		c0.5,0.01,3.11,0.06,4.14,0.4c0.08,0.03,0.15,0,0.2-0.06c0.52-0.68,1.76-1.5,3.11-1.68c1.58-0.21,4.3,0.7,8.16-0.77
		C431.44-4.76,433.29-7.69,435-9.07z"/>
	<path class="st1" d="M444.23-1.72c0,0-3.35-3.67-8.13-3.23c-4.78,0.44-6.9,2.07-8.74,2.48c-2.48,0.56-6.74-1.06-8.31,1.17
		c1.22,0.52,3.93,1.67,5.23,3.94c1.6,2.37,7.24,3,11.26-0.03S442.87-1.82,444.23-1.72z"/>
	<path class="st1" d="M451.63-0.57c0,0-5.27-2.14-9.91,0.24s-6.63,5.07-10.08,5.49c-3.45,0.42-5.06-0.05-5.06-0.05
		s2.17,5.79,8.95,5.34S448.38,0.1,451.63-0.57z"/>
	<path class="st1" d="M464.67-4.75c0,0-6.55,3.43-8.19,8.73c-1.4,4.51-3.16,6.4-4.79,8.2c-2.34,2.58-4.99,3.16-4.99,3.16
		s9.79,4.17,13.92-1.22C465.41,7.88,462.94-1.93,464.67-4.75z"/>
	<path class="st1" d="M457.8,0.12c0.18-0.18,0.05-0.5-0.21-0.51c-1.7-0.07-5.72,0.09-8.72,2.74c-3.91,3.46-5.75,6.04-8.89,7.54
		c-1.94,0.93-3.18,1.27-3.85,1.39c-0.25,0.05-0.33,0.35-0.15,0.52c1.33,1.25,5.5,4.57,10.8,2.83
		C454.36,12.15,455.32,2.63,457.8,0.12z"/>
	<path class="st1" d="M467.85-6.15c0,0-2,0.57-2.57,1.4c-1.28,1.87-0.56,8.9-1.07,11.85c-0.53,3.12-1.58,6.28-3.6,7.72
		c1.88,0,5.74-0.26,8.12-3.56C471.28,7.69,473.43,0.76,467.85-6.15z"/>
	<path class="st1" d="M479.91-2.67c0,0-3.35-0.98-4.14-2.47c-1.72,0.98-6.05-0.27-6.56-0.65c1.63,1.77,4.29,6.93,2.15,13.95
		C473.12,7.37,479.21,5.75,479.91-2.67z"/>
	<path class="st1" d="M433.44-5.56c0,0,3.26-6.03,8.84-6.28c3.41-0.15,8.7,1.44,11.67,4.23c1.88,1.76,6.84,3.41,8.79,2.85
		c-2.47,1.63-4.98,5.48-13.49,2.64C443.48-4.04,440.65-7.09,433.44-5.56z"/>
	<path class="st1" d="M441.44-12.44c0,0,2.84-4.94,8.42-5.18c3.41-0.15,8.11,2.19,11.12,4.95c2.23,2.05,4.56,5.72,6.84,5.77
		c-2.47,1.63-7.66,2.15-11.77-0.6C450.99-10.91,447.35-13.32,441.44-12.44z"/>
	<path class="st1" d="M451.16-18.44c0,0,7.3-4.78,12.47-2.65c3.16,1.3,6.59,5.84,8.15,9.61c1.16,2.8,1.64,4.85,3.68,5.85
		c-2.92,0.44-8.43-1.07-11.37-5.04C461.07-14.76,456.6-17.97,451.16-18.44z"/>
	<path class="st1" d="M487.77-17.91c-0.14-0.2,0.14-0.47,0.43-0.42c2.39,0.41,9.25,1.93,10.79,6.05c1.14,3.07,1.33,6.03-1.29,9.84
		c-1.71,2.49-1.69,4.93-1.27,6.91c0.05,0.24-0.35,0.45-0.58,0.3c-3-1.98-8.21-6.45-6.6-10.92
		C490.97-10.96,490.62-13.87,487.77-17.91z"/>
	<path class="st1" d="M473.34-22.28c0,0,9.36,0.64,12.75,4.65c2.21,2.61,3.01,7.49,2.19,11.48c-0.61,2.97,0.64,6.06,1.77,8.03
		c-6.42-3.49-7.77-5.46-8.56-12.84C480.93-16.12,477.39-20.1,473.34-22.28z"/>
	<path class="st1" d="M463.51-22.24c-0.31-0.09-0.27-0.55,0.06-0.58c2.15-0.19,5.85-0.21,9.22,1.18c3.16,1.3,6.37,5.48,7.4,9.43
		c0.68,2.62,1,7.16,2.53,8.8c0.17,0.19,0.03,0.5-0.23,0.5c-3.04-0.1-7.83-2.82-9.83-8.94C471.25-16.13,468.02-20.89,463.51-22.24z"
		/>
	<path class="st1" d="M415.14-43.89c0,0-3.33,0.31-4.61,1.11c-1.28,0.8-3.52,2.62-3.52,2.62s-1.78,5.42-3.7,6.79
		c0.31,0.91-0.71,3.33-0.71,3.33s2.86-1.05,4.41-3.03C408.76-35.33,410.53-41.1,415.14-43.89z"/>
	<path class="st1" d="M458.88-61.97c0,0-3.21-2.42-6.79-1.95c-3.58,0.47-8.05,3.21-9.07,7.49s0.65,8.05-1.77,11.79
		c2.19-1,4.88-1.75,6.6-4.77C449.58-52.44,449.67-58.72,458.88-61.97z"/>
	<path class="st1" d="M470.26-56.77c0.27,0.03,0.43-0.29,0.23-0.48c-1.05-1-3.41-3.01-6.12-3.79c-4.37-1.26-8.6,0.57-11.4,3.87
		c-2.79,3.3-3.67,9.57-6.65,10.64c3.07,0.37,6.6-0.09,8.65-2.05C461.75-55.03,463.29-57.51,470.26-56.77z"/>
	<path class="st1" d="M478.6-49.08c0,0-4.65-7.17-10.98-6.8c-6.33,0.37-10.19,8.28-14.37,9.16c2.28,1.4,4.88,2.56,8.74,1.53
		C465.86-46.21,472.14-51.86,478.6-49.08z"/>
	<path class="st1" d="M507.51-54.17c0.08-0.21-0.17-0.39-0.34-0.25c-0.98,0.79-3.06,2.12-5.86,2.02c-3.98-0.14-7.26-1.8-11.51-1.74
		c-3.43,0.05-6.77,3.23-7.94,4.47c-0.14,0.15-0.01,0.4,0.19,0.37c1.47-0.23,5.19-0.63,7.6,0.88C492.43-46.69,503-41.94,507.51-54.17
		z"/>
	<path class="st1" d="M502.98-46.41c0,0-7.6,2.22-11.16,0.11c-5.29-3.13-10.49-3.11-18.23,0.63c3.53,0.67,5.71,1.75,8.81,3.84
		C484.83-40.19,498.16-34.76,502.98-46.41z"/>
	<path class="st1" d="M497.67-39.53c0,0-7.53,3.13-14.02-0.84c-7.51-4.58-9.29-4.94-17.72-3.23c3.52,1.18,5.53,3.42,7.22,5.64
		C476.57-33.46,490.12-29.44,497.67-39.53z"/>
	<path class="st1" d="M483.09-32.73c0,0-3.77-0.03-6.91-1.6c-3.1-1.55-5.48-5.58-7.33-6.8c-1.85-1.22-4.4-3.1-9.98-2.06
		c2.16,1.6,3.8,3.9,4.26,5.11c0.45,1.21,4.49,9.23,10.44,8.74C479.53-29.83,483.09-32.73,483.09-32.73z"/>
	<path class="st1" d="M471.3-28.61c0,0-2.39,0.12-5.37-3.49c-3.35-4.05-5.48-11.61-12.42-12.69c0.8,2.79,0.38,3.55,0.24,4.84
		C453.62-38.66,452.94-23.34,471.3-28.61z"/>
	<path class="st1" d="M460.1-27.51c0,0-3.41-1.18-5.06-3.68c-1.79-2.71-2.17-5.82-1.79-9.62c0.38-3.8-1.01-5.41-1.01-5.41
		s-4.11,0.52-5.29,3.17s-2.97,10.22,3.49,14.27C456.9-24.74,460.1-27.51,460.1-27.51z"/>
	<path class="st1" d="M448.83-29.09c0,0-7.58-5.42-1.39-15.95c-0.94,0.25-2.51-0.21-2.51-0.21s-2.76,1.74-4.01,1.53
		c-0.38,1.74-3.28,5.06-3.28,5.06S439.97-29.23,448.83-29.09z"/>
	<path class="st1" d="M475.46-22.84c0,0-1.96-0.33-3.03,0.07c-0.72-0.47-2.49-0.77-3.03-0.72c-0.16-0.65-0.12-2.81,1.41-4.03
		C472.17-24.88,475.46-22.84,475.46-22.84z"/>
	<path class="st1" d="M472.17-28.44c0,0-1.01,0.45-0.87,0.73c0.14,0.28,2.63,3.7,4.94,4.94c3.12,0.35,6.99,1.24,9.99,3.99
		c0-1.19,0.21-7.74-6.87-11.09C478.35-29.32,475.24-28.51,472.17-28.44z"/>
	<path class="st1" d="M486.47-24.16c0,0-1.21-3.94-5.3-5.94c-0.2-0.1-0.2-0.37,0-0.45c1.04-0.45,2.78-1.61,2.85-1.96
		c0.47,0.21,2.88,0.26,3.44,0C487.72-31.51,488.37-28.48,486.47-24.16z"/>
	<path class="st1" d="M478.86-48.44c0,0-3.69-0.95-6.91-0.13c-3.44,0.87-6.19,3.5-9.77,4.02c1.86,0,2.74,0.15,3.16,0.34
		c0.58-0.34,5.08-1.58,7.05-1.44C473.58-46.72,476-47.88,478.86-48.44z"/>
	<g>
		<defs>
			<path id="SVGID_5_" d="M419.31,33.82c-1.46,0-2.62,0.91-3.05,1.92h-0.04v-1.62h-2.34v10.11h2.46v-5.56c0-1.35,0.74-2.74,2.3-2.74
				c1.58,0,1.85,1.5,1.85,2.7v5.61h2.46v-6.32C422.94,35.84,421.88,33.82,419.31,33.82z M408.9,44.23h2.46V34.12h-2.46V44.23z
				 M449.66,34.11v2.24h2.76v7.88h2.46v-7.88h2.76v-2.24H449.66z M453.65,32.79c0.82,0,1.49-0.68,1.49-1.53
				c0-0.84-0.67-1.53-1.49-1.53c-0.82,0-1.49,0.68-1.49,1.53C452.16,32.11,452.83,32.79,453.65,32.79z M428.19,32.79
				c0.82,0,1.49-0.68,1.49-1.53c0-0.84-0.67-1.53-1.49-1.53c-0.82,0-1.49,0.68-1.49,1.53C426.7,32.11,427.37,32.79,428.19,32.79z
				 M445.47,44.23h2.46V34.12h-2.46V44.23z M440.49,39.68c0,1.35-0.74,2.74-2.3,2.74c-1.58,0-1.85-1.5-1.85-2.7v-5.6h-2.46v6.32
				c0,2.07,1.07,4.09,3.63,4.09c1.46,0,2.63-0.91,3.06-1.92h0.04v1.62h2.34V34.12h-2.46V39.68z M424.2,36.35h2.76v7.88h2.46v-7.88
				h2.76v-2.24h-7.98V36.35z"/>
		</defs>
		<clipPath id="SVGID_9_">
			<use xlink:href="#SVGID_5_"  style="overflow:visible;"/>
		</clipPath>
		<rect x="406.16" y="27" style="clip-path:url(#SVGID_9_);fill:#FFFFFF;" width="54.22" height="20.26"/>
	</g>
	
		<ellipse transform="matrix(0.615 -0.7885 0.7885 0.615 229.1427 371.0202)" class="st4" cx="494.55" cy="-49.16" rx="2.7" ry="9.68"/>
	
		<rect x="489.3" y="-62.04" transform="matrix(0.7885 0.615 -0.615 0.7885 71.8129 -318.4993)" class="st4" width="19.37" height="14.4"/>
	
		<ellipse transform="matrix(0.615 -0.7885 0.7885 0.615 241.5335 373.5148)" class="st5" cx="503.3" cy="-60.61" rx="1.35" ry="9.54"/>
	
		<ellipse transform="matrix(0.7344 -0.6787 0.6787 0.7344 136.5737 240.35)" class="st4" cx="375.37" cy="-54.32" rx="9.38" ry="2.7"/>
	
		<rect x="361.1" y="-66.82" transform="matrix(0.7344 -0.6787 0.6787 0.7344 138.8707 235.6299)" class="st4" width="18.77" height="14.4"/>
	
		<ellipse transform="matrix(0.7344 -0.6787 0.6787 0.7344 141.0688 230.8619)" class="st5" cx="365.5" cy="-64.81" rx="9.24" ry="1.35"/>
	
		<ellipse transform="matrix(0.7406 -0.6719 0.6719 0.7406 99.1185 251.0381)" class="st4" cx="374.72" cy="-2.87" rx="2.7" ry="9.68"/>
	
		<rect x="359.7" y="-5.24" transform="matrix(-0.6719 -0.7406 0.7406 -0.6719 616.1216 276.8633)" class="st4" width="19.37" height="14.4"/>
	
		<ellipse transform="matrix(0.7406 -0.6719 0.6719 0.7406 89.8037 246.4693)" class="st5" cx="364.15" cy="6.91" rx="1.35" ry="9.54"/>
	
		<ellipse transform="matrix(0.4791 -0.8777 0.8777 0.4791 262.5943 429.3708)" class="st4" cx="493.08" cy="-6.57" rx="9.68" ry="2.7"/>
	
		<rect x="489.71" y="-10.32" transform="matrix(-0.4791 0.8777 -0.8777 -0.4791 735.9449 -442.947)" class="st4" width="19.37" height="14.4"/>
	
		<ellipse transform="matrix(0.4791 -0.8777 0.8777 0.4791 263.2628 444.0579)" class="st5" cx="505.79" cy="0.21" rx="9.54" ry="1.35"/>
</g>
</svg>
